<svg xmlns="http://www.w3.org/2000/svg" xmlns:xlink="http://www.w3.org/1999/xlink" width="100" zoomAndPan="magnify" viewBox="0 0 75 37.5" height="50" preserveAspectRatio="xMidYMid meet" version="1.0"><defs><g/><clipPath id="b7fe976942"><path d="M 1.214844 1 L 19 1 L 19 23.242188 L 1.214844 23.242188 Z M 1.214844 1 " clip-rule="nonzero"/></clipPath><clipPath id="850e601c55"><path d="M 18 0 L 33.34375 0 L 33.34375 23.242188 L 18 23.242188 Z M 18 0 " clip-rule="nonzero"/></clipPath></defs><g clip-path="url(#b7fe976942)"><path fill="#ffaa00" d="M 1.230469 23.253906 L 5.496094 23.253906 C 9.09375 23.253906 11.839844 22.808594 14.582031 20.460938 C 17.113281 18.28125 18.328125 15.425781 18.328125 12.183594 C 18.328125 8.882812 17.136719 5.90625 14.519531 3.730469 C 11.800781 1.496094 8.996094 1.054688 5.554688 1.054688 L 1.230469 1.054688 Z M 3.789062 20.960938 L 3.789062 3.351562 L 5.648438 3.351562 C 8.367188 3.351562 10.683594 3.707031 12.785156 5.503906 C 14.769531 7.179688 15.769531 9.625 15.769531 12.15625 C 15.769531 14.628906 14.792969 16.953125 12.90625 18.660156 C 10.800781 20.574219 8.457031 20.960938 5.648438 20.960938 Z M 3.789062 20.960938 " fill-opacity="1" fill-rule="nonzero"/></g><g clip-path="url(#850e601c55)"><path fill="#f7f7f7" d="M 18.910156 8.847656 L 22.945312 0 L 33.277344 23.253906 L 30.445312 23.253906 L 27.734375 16.953125 L 18.332031 16.953125 C 18.679688 16.226562 18.9375 15.457031 19.109375 14.660156 L 26.726562 14.660156 L 22.886719 5.773438 L 19.21875 14.0625 C 19.316406 13.453125 19.359375 12.832031 19.359375 12.1875 C 19.359375 11.027344 19.210938 9.910156 18.910156 8.847656 Z M 18.910156 8.847656 " fill-opacity="1" fill-rule="evenodd"/></g><g fill="#ffaa00" fill-opacity="1"><g transform="translate(36.733648, 10.698332)"><g><path d="M 7.046875 -6.078125 C 7.046875 -5.390625 6.90625 -4.75 6.625 -4.15625 C 6.34375 -3.5625 5.972656 -3.019531 5.515625 -2.53125 C 5.128906 -2.113281 4.738281 -1.695312 4.34375 -1.28125 C 3.957031 -0.863281 3.53125 -0.492188 3.0625 -0.171875 C 2.914062 -0.078125 2.75 0.0078125 2.5625 0.09375 C 2.375 0.175781 2.175781 0.242188 1.96875 0.296875 C 1.757812 0.359375 1.550781 0.40625 1.34375 0.4375 C 1.144531 0.46875 0.960938 0.484375 0.796875 0.484375 C 0.703125 0.484375 0.609375 0.460938 0.515625 0.421875 C 0.421875 0.390625 0.332031 0.34375 0.25 0.28125 C 0.164062 0.226562 0.0976562 0.160156 0.046875 0.078125 C -0.00390625 -0.00390625 -0.03125 -0.09375 -0.03125 -0.1875 C -0.03125 -0.332031 0.0234375 -0.484375 0.140625 -0.640625 C 0.253906 -0.796875 0.394531 -0.957031 0.5625 -1.125 C 0.726562 -1.289062 0.90625 -1.460938 1.09375 -1.640625 C 1.289062 -1.816406 1.472656 -1.992188 1.640625 -2.171875 C 1.816406 -2.347656 1.957031 -2.53125 2.0625 -2.71875 C 2.175781 -2.90625 2.234375 -3.09375 2.234375 -3.28125 C 2.234375 -3.4375 2.195312 -3.601562 2.125 -3.78125 C 2.050781 -3.957031 1.945312 -4.125 1.8125 -4.28125 C 1.6875 -4.4375 1.546875 -4.566406 1.390625 -4.671875 C 1.242188 -4.773438 1.085938 -4.828125 0.921875 -4.828125 C 0.816406 -4.828125 0.722656 -4.859375 0.640625 -4.921875 C 0.566406 -4.984375 0.53125 -5.066406 0.53125 -5.171875 C 0.53125 -5.398438 0.613281 -5.640625 0.78125 -5.890625 C 0.945312 -6.140625 1.160156 -6.382812 1.421875 -6.625 C 1.679688 -6.863281 1.976562 -7.09375 2.3125 -7.3125 C 2.65625 -7.53125 2.992188 -7.722656 3.328125 -7.890625 C 3.660156 -8.054688 3.976562 -8.1875 4.28125 -8.28125 C 4.582031 -8.382812 4.835938 -8.4375 5.046875 -8.4375 C 5.378906 -8.4375 5.671875 -8.367188 5.921875 -8.234375 C 6.179688 -8.109375 6.390625 -7.9375 6.546875 -7.71875 C 6.710938 -7.5 6.835938 -7.242188 6.921875 -6.953125 C 7.003906 -6.671875 7.046875 -6.378906 7.046875 -6.078125 Z M 6.359375 -6.40625 C 6.359375 -6.570312 6.34375 -6.742188 6.3125 -6.921875 C 6.289062 -7.109375 6.242188 -7.28125 6.171875 -7.4375 C 6.109375 -7.59375 6.007812 -7.71875 5.875 -7.8125 C 5.75 -7.914062 5.582031 -7.96875 5.375 -7.96875 C 5.351562 -7.96875 5.304688 -7.960938 5.234375 -7.953125 C 5.171875 -7.953125 5.101562 -7.941406 5.03125 -7.921875 C 4.96875 -7.910156 4.90625 -7.894531 4.84375 -7.875 C 4.789062 -7.851562 4.765625 -7.828125 4.765625 -7.796875 C 4.765625 -7.484375 4.679688 -7.113281 4.515625 -6.6875 C 4.359375 -6.257812 4.179688 -5.816406 3.984375 -5.359375 C 3.785156 -4.898438 3.59375 -4.453125 3.40625 -4.015625 C 3.21875 -3.578125 3.101562 -3.195312 3.0625 -2.875 C 3.15625 -2.882812 3.242188 -2.90625 3.328125 -2.9375 C 3.421875 -2.96875 3.519531 -2.984375 3.625 -2.984375 C 3.6875 -2.984375 3.753906 -2.972656 3.828125 -2.953125 C 3.910156 -2.929688 3.957031 -2.882812 3.96875 -2.8125 L 3.828125 -2.65625 C 3.546875 -2.53125 3.328125 -2.421875 3.171875 -2.328125 C 3.023438 -2.242188 2.914062 -2.160156 2.84375 -2.078125 C 2.769531 -1.992188 2.71875 -1.910156 2.6875 -1.828125 C 2.664062 -1.753906 2.644531 -1.660156 2.625 -1.546875 C 2.613281 -1.429688 2.585938 -1.289062 2.546875 -1.125 C 2.515625 -0.96875 2.445312 -0.78125 2.34375 -0.5625 L 2.484375 -0.609375 C 2.703125 -0.742188 2.953125 -0.941406 3.234375 -1.203125 C 3.515625 -1.460938 3.789062 -1.742188 4.0625 -2.046875 C 4.34375 -2.347656 4.609375 -2.648438 4.859375 -2.953125 C 5.109375 -3.253906 5.3125 -3.507812 5.46875 -3.71875 C 5.738281 -4.09375 5.953125 -4.515625 6.109375 -4.984375 C 6.273438 -5.460938 6.359375 -5.9375 6.359375 -6.40625 Z M 1.6875 -5.703125 C 1.738281 -5.597656 1.789062 -5.46875 1.84375 -5.3125 C 1.90625 -5.15625 1.972656 -5 2.046875 -4.84375 C 2.117188 -4.695312 2.195312 -4.554688 2.28125 -4.421875 C 2.363281 -4.285156 2.453125 -4.179688 2.546875 -4.109375 C 2.566406 -4.117188 2.609375 -4.195312 2.671875 -4.34375 C 2.742188 -4.5 2.820312 -4.6875 2.90625 -4.90625 C 3 -5.132812 3.09375 -5.382812 3.1875 -5.65625 C 3.289062 -5.925781 3.382812 -6.179688 3.46875 -6.421875 C 3.5625 -6.671875 3.640625 -6.882812 3.703125 -7.0625 C 3.765625 -7.25 3.8125 -7.375 3.84375 -7.4375 C 3.675781 -7.382812 3.476562 -7.296875 3.25 -7.171875 C 3.03125 -7.046875 2.816406 -6.90625 2.609375 -6.75 C 2.398438 -6.59375 2.207031 -6.421875 2.03125 -6.234375 C 1.863281 -6.054688 1.75 -5.878906 1.6875 -5.703125 Z M 0.71875 0.03125 C 0.757812 0.0195312 0.820312 0.0078125 0.90625 0 C 0.988281 -0.0078125 1.070312 -0.0234375 1.15625 -0.046875 C 1.238281 -0.0664062 1.3125 -0.0859375 1.375 -0.109375 C 1.4375 -0.140625 1.484375 -0.175781 1.515625 -0.21875 C 1.460938 -0.257812 1.414062 -0.304688 1.375 -0.359375 C 1.34375 -0.421875 1.328125 -0.488281 1.328125 -0.5625 C 1.328125 -0.632812 1.34375 -0.707031 1.375 -0.78125 C 1.414062 -0.851562 1.4375 -0.925781 1.4375 -1 L 1.4375 -1.09375 L 1.390625 -1.09375 C 1.242188 -0.945312 1.097656 -0.796875 0.953125 -0.640625 C 0.816406 -0.484375 0.722656 -0.296875 0.671875 -0.078125 Z M 0.71875 0.03125 "/></g></g></g><g fill="#ffaa00" fill-opacity="1"><g transform="translate(45.239727, 10.698332)"><g><path d="M -0.03125 -0.28125 C -0.03125 -0.726562 0.0078125 -1.132812 0.09375 -1.5 C 0.175781 -1.875 0.300781 -2.21875 0.46875 -2.53125 C 0.632812 -2.851562 0.84375 -3.160156 1.09375 -3.453125 C 1.34375 -3.742188 1.628906 -4.035156 1.953125 -4.328125 C 1.992188 -4.378906 2.023438 -4.421875 2.046875 -4.453125 C 2.023438 -4.503906 1.992188 -4.550781 1.953125 -4.59375 C 1.910156 -4.632812 1.867188 -4.679688 1.828125 -4.734375 C 1.785156 -4.785156 1.75 -4.847656 1.71875 -4.921875 C 1.6875 -5.003906 1.671875 -5.117188 1.671875 -5.265625 C 1.671875 -5.597656 1.769531 -5.945312 1.96875 -6.3125 C 2.175781 -6.675781 2.429688 -7.007812 2.734375 -7.3125 C 3.046875 -7.625 3.382812 -7.878906 3.75 -8.078125 C 4.125 -8.273438 4.476562 -8.375 4.8125 -8.375 C 4.945312 -8.375 5.066406 -8.335938 5.171875 -8.265625 C 5.285156 -8.203125 5.378906 -8.117188 5.453125 -8.015625 C 5.523438 -7.910156 5.582031 -7.796875 5.625 -7.671875 C 5.664062 -7.546875 5.6875 -7.421875 5.6875 -7.296875 C 5.6875 -7.253906 5.675781 -7.203125 5.65625 -7.140625 C 5.644531 -7.078125 5.628906 -7.015625 5.609375 -6.953125 C 5.585938 -6.890625 5.554688 -6.835938 5.515625 -6.796875 C 5.484375 -6.753906 5.441406 -6.734375 5.390625 -6.734375 C 5.296875 -6.734375 5.21875 -6.773438 5.15625 -6.859375 C 5.09375 -6.953125 5.0625 -7.046875 5.0625 -7.140625 C 5.0625 -7.171875 5.066406 -7.21875 5.078125 -7.28125 C 5.097656 -7.351562 5.109375 -7.421875 5.109375 -7.484375 C 5.109375 -7.546875 5.097656 -7.597656 5.078125 -7.640625 C 5.066406 -7.691406 5.03125 -7.71875 4.96875 -7.71875 C 4.71875 -7.71875 4.425781 -7.632812 4.09375 -7.46875 C 3.769531 -7.300781 3.453125 -7.09375 3.140625 -6.84375 C 2.835938 -6.59375 2.582031 -6.316406 2.375 -6.015625 C 2.164062 -5.722656 2.0625 -5.453125 2.0625 -5.203125 C 2.0625 -5.109375 2.09375 -5.023438 2.15625 -4.953125 C 2.21875 -4.890625 2.296875 -4.859375 2.390625 -4.859375 C 2.546875 -4.859375 2.703125 -4.890625 2.859375 -4.953125 C 3.015625 -5.015625 3.171875 -5.078125 3.328125 -5.140625 C 3.484375 -5.210938 3.640625 -5.273438 3.796875 -5.328125 C 3.960938 -5.390625 4.132812 -5.421875 4.3125 -5.421875 C 4.539062 -5.421875 4.734375 -5.351562 4.890625 -5.21875 C 5.054688 -5.09375 5.140625 -4.910156 5.140625 -4.671875 C 5.140625 -4.546875 5.085938 -4.421875 4.984375 -4.296875 C 4.878906 -4.171875 4.757812 -4.109375 4.625 -4.109375 C 4.59375 -4.109375 4.546875 -4.117188 4.484375 -4.140625 C 4.429688 -4.171875 4.40625 -4.210938 4.40625 -4.265625 C 4.40625 -4.328125 4.421875 -4.382812 4.453125 -4.4375 C 4.492188 -4.488281 4.519531 -4.546875 4.53125 -4.609375 L 4.421875 -4.6875 C 3.941406 -4.675781 3.457031 -4.523438 2.96875 -4.234375 C 2.488281 -3.941406 2.054688 -3.570312 1.671875 -3.125 C 1.285156 -2.6875 0.96875 -2.207031 0.71875 -1.6875 C 0.476562 -1.164062 0.359375 -0.671875 0.359375 -0.203125 C 0.359375 -0.128906 0.359375 -0.0546875 0.359375 0.015625 C 0.367188 0.0976562 0.382812 0.171875 0.40625 0.234375 C 0.4375 0.304688 0.472656 0.363281 0.515625 0.40625 C 0.566406 0.445312 0.640625 0.46875 0.734375 0.46875 C 1.015625 0.46875 1.300781 0.398438 1.59375 0.265625 C 1.894531 0.140625 2.1875 -0.015625 2.46875 -0.203125 C 2.757812 -0.398438 3.035156 -0.613281 3.296875 -0.84375 C 3.566406 -1.070312 3.804688 -1.28125 4.015625 -1.46875 C 4.234375 -1.664062 4.421875 -1.828125 4.578125 -1.953125 C 4.734375 -2.085938 4.847656 -2.15625 4.921875 -2.15625 C 4.992188 -2.15625 5.070312 -2.117188 5.15625 -2.046875 C 5.238281 -1.984375 5.28125 -1.910156 5.28125 -1.828125 C 5.28125 -1.753906 5.195312 -1.632812 5.03125 -1.46875 C 4.875 -1.3125 4.664062 -1.128906 4.40625 -0.921875 C 4.15625 -0.710938 3.867188 -0.5 3.546875 -0.28125 C 3.234375 -0.0625 2.914062 0.140625 2.59375 0.328125 C 2.269531 0.515625 1.96875 0.664062 1.6875 0.78125 C 1.414062 0.894531 1.191406 0.953125 1.015625 0.953125 C 0.597656 0.953125 0.316406 0.84375 0.171875 0.625 C 0.0351562 0.40625 -0.03125 0.101562 -0.03125 -0.28125 Z M -0.03125 -0.28125 "/></g></g></g><g fill="#ffaa00" fill-opacity="1"><g transform="translate(52.316375, 10.698332)"><g><path d="M -0.171875 -7.140625 C 0.160156 -7.140625 0.429688 -7.023438 0.640625 -6.796875 C 0.847656 -6.578125 1.007812 -6.289062 1.125 -5.9375 C 1.238281 -5.582031 1.316406 -5.191406 1.359375 -4.765625 C 1.398438 -4.335938 1.421875 -3.921875 1.421875 -3.515625 C 1.421875 -3.109375 1.410156 -2.734375 1.390625 -2.390625 C 1.378906 -2.054688 1.375 -1.804688 1.375 -1.640625 C 1.375 -1.578125 1.375 -1.5 1.375 -1.40625 C 1.375 -1.3125 1.375 -1.210938 1.375 -1.109375 C 1.382812 -1.003906 1.394531 -0.90625 1.40625 -0.8125 C 1.414062 -0.71875 1.425781 -0.640625 1.4375 -0.578125 L 1.53125 -0.65625 C 2.4375 -1.519531 3.289062 -2.390625 4.09375 -3.265625 C 4.894531 -4.140625 5.707031 -4.988281 6.53125 -5.8125 C 7.363281 -6.632812 8.238281 -7.425781 9.15625 -8.1875 C 10.070312 -8.957031 11.085938 -9.660156 12.203125 -10.296875 C 12.285156 -10.347656 12.367188 -10.40625 12.453125 -10.46875 C 12.546875 -10.53125 12.644531 -10.5625 12.75 -10.5625 C 12.882812 -10.5625 13.015625 -10.515625 13.140625 -10.421875 C 13.265625 -10.335938 13.328125 -10.222656 13.328125 -10.078125 C 13.328125 -10.023438 13.300781 -9.921875 13.25 -9.765625 C 13.207031 -9.617188 13.15625 -9.460938 13.09375 -9.296875 C 13.03125 -9.140625 12.96875 -9 12.90625 -8.875 C 12.84375 -8.75 12.789062 -8.6875 12.75 -8.6875 C 12.632812 -8.6875 12.535156 -8.726562 12.453125 -8.8125 C 12.367188 -8.90625 12.328125 -9.007812 12.328125 -9.125 C 12.328125 -9.175781 12.332031 -9.242188 12.34375 -9.328125 C 12.363281 -9.421875 12.335938 -9.476562 12.265625 -9.5 C 12.203125 -9.488281 12.144531 -9.460938 12.09375 -9.421875 C 12.039062 -9.390625 11.988281 -9.359375 11.9375 -9.328125 C 11.394531 -9.003906 10.820312 -8.597656 10.21875 -8.109375 C 9.613281 -7.628906 9 -7.097656 8.375 -6.515625 C 7.75 -5.941406 7.117188 -5.335938 6.484375 -4.703125 C 5.859375 -4.066406 5.253906 -3.429688 4.671875 -2.796875 C 4.085938 -2.171875 3.535156 -1.554688 3.015625 -0.953125 C 2.503906 -0.347656 2.050781 0.203125 1.65625 0.703125 C 1.613281 0.742188 1.566406 0.8125 1.515625 0.90625 C 1.472656 1 1.425781 1.085938 1.375 1.171875 C 1.320312 1.265625 1.265625 1.34375 1.203125 1.40625 C 1.148438 1.476562 1.085938 1.515625 1.015625 1.515625 C 0.859375 1.515625 0.734375 1.453125 0.640625 1.328125 C 0.554688 1.203125 0.515625 1.070312 0.515625 0.9375 C 0.515625 0.582031 0.515625 0.203125 0.515625 -0.203125 C 0.523438 -0.617188 0.535156 -1.035156 0.546875 -1.453125 C 0.554688 -1.878906 0.5625 -2.296875 0.5625 -2.703125 C 0.570312 -3.117188 0.578125 -3.5 0.578125 -3.84375 C 0.578125 -4.125 0.566406 -4.40625 0.546875 -4.6875 C 0.523438 -4.96875 0.476562 -5.234375 0.40625 -5.484375 C 0.332031 -5.742188 0.21875 -5.984375 0.0625 -6.203125 C -0.0820312 -6.429688 -0.28125 -6.625 -0.53125 -6.78125 L -0.40625 -7.109375 C -0.375 -7.117188 -0.332031 -7.125 -0.28125 -7.125 C -0.238281 -7.132812 -0.203125 -7.140625 -0.171875 -7.140625 Z M -0.171875 -7.140625 "/></g></g></g><g fill="#ffffff" fill-opacity="1"><g transform="translate(36.733648, 22.661342)"><g><path d="M 2.65625 -9.34375 C 2.75 -9.34375 2.832031 -9.304688 2.90625 -9.234375 C 2.976562 -9.160156 3.035156 -9 3.078125 -8.75 C 3.128906 -8.507812 3.195312 -8.160156 3.28125 -7.703125 C 3.375 -7.253906 3.476562 -6.769531 3.59375 -6.25 C 3.707031 -5.738281 3.820312 -5.207031 3.9375 -4.65625 C 4.0625 -4.101562 4.1875 -3.570312 4.3125 -3.0625 C 4.613281 -1.851562 4.84375 -0.972656 5 -0.421875 C 5.039062 -0.273438 5.03125 -0.160156 4.96875 -0.078125 C 4.914062 0.00390625 4.851562 0.046875 4.78125 0.046875 C 4.707031 0.046875 4.640625 0.0234375 4.578125 -0.015625 C 4.515625 -0.0546875 4.457031 -0.179688 4.40625 -0.390625 C 4.363281 -0.597656 4.289062 -0.929688 4.1875 -1.390625 C 4.082031 -1.859375 3.972656 -2.359375 3.859375 -2.890625 C 3.859375 -2.921875 3.851562 -2.941406 3.84375 -2.953125 C 3.582031 -2.960938 3.210938 -2.96875 2.734375 -2.96875 C 2.171875 -2.96875 1.742188 -2.960938 1.453125 -2.953125 C 1.453125 -2.929688 1.445312 -2.910156 1.4375 -2.890625 C 1.207031 -1.753906 1.035156 -0.878906 0.921875 -0.265625 C 0.878906 -0.0664062 0.773438 0.03125 0.609375 0.03125 C 0.441406 0.03125 0.335938 -0.0507812 0.296875 -0.21875 C 0.285156 -0.269531 0.296875 -0.347656 0.328125 -0.453125 C 0.367188 -0.554688 0.421875 -0.738281 0.484375 -1 C 0.554688 -1.269531 0.628906 -1.570312 0.703125 -1.90625 C 0.785156 -2.25 0.867188 -2.625 0.953125 -3.03125 C 1.046875 -3.4375 1.132812 -3.851562 1.21875 -4.28125 C 1.3125 -4.707031 1.40625 -5.132812 1.5 -5.5625 C 1.59375 -6 1.679688 -6.414062 1.765625 -6.8125 C 1.847656 -7.21875 1.925781 -7.597656 2 -7.953125 C 2.082031 -8.304688 2.144531 -8.585938 2.1875 -8.796875 C 2.257812 -9.160156 2.414062 -9.34375 2.65625 -9.34375 Z M 1.5625 -3.484375 C 1.851562 -3.472656 2.25 -3.46875 2.75 -3.46875 C 3.15625 -3.46875 3.484375 -3.472656 3.734375 -3.484375 C 3.648438 -3.835938 3.566406 -4.195312 3.484375 -4.5625 C 3.359375 -5.132812 3.238281 -5.691406 3.125 -6.234375 C 2.9375 -7.109375 2.769531 -7.878906 2.625 -8.546875 C 2.539062 -8.109375 2.414062 -7.507812 2.25 -6.75 C 2.03125 -5.726562 1.867188 -4.953125 1.765625 -4.421875 C 1.691406 -4.097656 1.625 -3.785156 1.5625 -3.484375 Z M 1.5625 -3.484375 "/></g></g></g><g fill="#ffffff" fill-opacity="1"><g transform="translate(43.568888, 22.661342)"><g><path d="M 1.203125 -9.375 C 1.429688 -9.375 1.546875 -9.207031 1.546875 -8.875 C 1.546875 -8.414062 1.539062 -7.9375 1.53125 -7.4375 C 1.53125 -6.9375 1.523438 -6.484375 1.515625 -6.078125 C 1.515625 -5.671875 1.515625 -5.195312 1.515625 -4.65625 C 1.503906 -3.519531 1.5 -2.132812 1.5 -0.5 C 2.257812 -0.488281 2.992188 -0.515625 3.703125 -0.578125 C 3.835938 -0.597656 3.941406 -0.570312 4.015625 -0.5 C 4.097656 -0.425781 4.140625 -0.347656 4.140625 -0.265625 C 4.140625 -0.179688 4.101562 -0.109375 4.03125 -0.046875 C 3.957031 0.00390625 3.851562 0.0234375 3.71875 0.015625 C 3.28125 -0.015625 2.804688 -0.0195312 2.296875 0 C 1.796875 0.0195312 1.492188 0.0351562 1.390625 0.046875 C 1.285156 0.0664062 1.207031 0.0703125 1.15625 0.0625 C 1.113281 0.0507812 1.070312 0.03125 1.03125 0 C 0.945312 -0.0625 0.910156 -0.15625 0.921875 -0.28125 C 0.960938 -1.1875 0.984375 -2.363281 0.984375 -3.8125 C 0.984375 -5.269531 0.984375 -6.171875 0.984375 -6.515625 C 0.984375 -6.859375 0.976562 -7.171875 0.96875 -7.453125 C 0.957031 -8.023438 0.925781 -8.539062 0.875 -9 C 0.863281 -9.125 0.890625 -9.21875 0.953125 -9.28125 C 1.023438 -9.34375 1.109375 -9.375 1.203125 -9.375 Z M 1.203125 -9.375 "/></g></g></g><g fill="#ffffff" fill-opacity="1"><g transform="translate(49.429285, 22.661342)"><g><path d="M 1.484375 -3.171875 L 1.5 -1.125 C 1.5 -0.9375 1.5 -0.773438 1.5 -0.640625 C 1.5 -0.585938 1.5 -0.539062 1.5 -0.5 C 2.46875 -0.5 3.113281 -0.515625 3.4375 -0.546875 C 3.769531 -0.578125 3.960938 -0.582031 4.015625 -0.5625 C 4.066406 -0.550781 4.113281 -0.53125 4.15625 -0.5 C 4.226562 -0.425781 4.265625 -0.347656 4.265625 -0.265625 C 4.265625 -0.179688 4.226562 -0.109375 4.15625 -0.046875 C 4.082031 0.00390625 3.984375 0.0234375 3.859375 0.015625 C 3.222656 -0.0234375 2.648438 -0.03125 2.140625 0 C 1.640625 0.03125 1.359375 0.0507812 1.296875 0.0625 C 1.234375 0.0703125 1.175781 0.0703125 1.125 0.0625 C 1.082031 0.0507812 1.039062 0.03125 1 0 C 0.90625 -0.0625 0.863281 -0.15625 0.875 -0.28125 C 0.9375 -1.394531 0.96875 -2.625 0.96875 -3.96875 C 0.96875 -5.320312 0.96875 -6.171875 0.96875 -6.515625 C 0.96875 -6.867188 0.96875 -7.1875 0.96875 -7.46875 C 0.957031 -8.09375 0.941406 -8.53125 0.921875 -8.78125 C 0.910156 -9.039062 0.914062 -9.195312 0.9375 -9.25 C 0.96875 -9.300781 1.003906 -9.335938 1.046875 -9.359375 C 1.109375 -9.378906 1.179688 -9.382812 1.265625 -9.375 C 1.429688 -9.34375 1.644531 -9.328125 1.90625 -9.328125 C 2.414062 -9.328125 2.765625 -9.335938 2.953125 -9.359375 C 3.140625 -9.378906 3.257812 -9.378906 3.3125 -9.359375 C 3.363281 -9.347656 3.410156 -9.328125 3.453125 -9.296875 C 3.523438 -9.234375 3.5625 -9.15625 3.5625 -9.0625 C 3.5625 -8.976562 3.523438 -8.90625 3.453125 -8.84375 C 3.390625 -8.789062 3.296875 -8.765625 3.171875 -8.765625 C 3.054688 -8.773438 2.929688 -8.785156 2.796875 -8.796875 C 2.660156 -8.804688 2.515625 -8.816406 2.359375 -8.828125 C 2.035156 -8.835938 1.753906 -8.832031 1.515625 -8.8125 C 1.515625 -8.476562 1.515625 -8.144531 1.515625 -7.8125 C 1.515625 -7.425781 1.507812 -7.03125 1.5 -6.625 C 1.488281 -5.539062 1.484375 -4.738281 1.484375 -4.21875 C 1.960938 -4.21875 2.316406 -4.226562 2.546875 -4.25 C 2.796875 -4.28125 2.953125 -4.269531 3.015625 -4.21875 C 3.078125 -4.164062 3.109375 -4.097656 3.109375 -4.015625 C 3.109375 -3.804688 2.910156 -3.707031 2.515625 -3.71875 C 2.429688 -3.71875 2.359375 -3.71875 2.296875 -3.71875 L 1.484375 -3.71875 Z M 1.484375 -3.171875 "/></g></g></g><g fill="#ffffff" fill-opacity="1"><g transform="translate(55.26661, 22.661342)"><g><path d="M 0.75 -9.21875 C 0.75 -9.46875 0.84375 -9.59375 1.03125 -9.59375 C 1.21875 -9.59375 1.347656 -9.460938 1.421875 -9.203125 C 1.503906 -8.953125 1.59375 -8.675781 1.6875 -8.375 C 1.789062 -8.082031 1.90625 -7.773438 2.03125 -7.453125 C 2.300781 -6.722656 2.519531 -6.097656 2.6875 -5.578125 C 2.832031 -5.984375 3.007812 -6.46875 3.21875 -7.03125 C 3.65625 -8.207031 3.898438 -8.894531 3.953125 -9.09375 C 4.023438 -9.40625 4.15625 -9.5625 4.34375 -9.5625 C 4.414062 -9.5625 4.476562 -9.53125 4.53125 -9.46875 C 4.59375 -9.414062 4.625 -9.34375 4.625 -9.25 C 4.625 -9.164062 4.585938 -9.039062 4.515625 -8.875 C 4.441406 -8.707031 4.34375 -8.484375 4.21875 -8.203125 C 4.101562 -7.929688 3.976562 -7.628906 3.84375 -7.296875 C 3.53125 -6.546875 3.226562 -5.726562 2.9375 -4.84375 C 3.65625 -2.6875 4.164062 -1.253906 4.46875 -0.546875 C 4.53125 -0.398438 4.535156 -0.285156 4.484375 -0.203125 C 4.359375 0.015625 4.210938 0.0625 4.046875 -0.0625 C 3.992188 -0.09375 3.945312 -0.160156 3.90625 -0.265625 C 3.875 -0.367188 3.828125 -0.519531 3.765625 -0.71875 C 3.703125 -0.925781 3.628906 -1.148438 3.546875 -1.390625 C 3.472656 -1.628906 3.394531 -1.878906 3.3125 -2.140625 C 3.226562 -2.398438 3.144531 -2.664062 3.0625 -2.9375 C 2.882812 -3.476562 2.75 -3.910156 2.65625 -4.234375 C 2.550781 -3.910156 2.453125 -3.59375 2.359375 -3.28125 C 2.234375 -2.894531 2.113281 -2.53125 2 -2.1875 C 1.707031 -1.269531 1.515625 -0.695312 1.421875 -0.46875 C 1.335938 -0.238281 1.265625 -0.09375 1.203125 -0.03125 C 1.140625 0.0195312 1.078125 0.046875 1.015625 0.046875 C 0.953125 0.046875 0.894531 0.015625 0.84375 -0.046875 C 0.789062 -0.117188 0.765625 -0.191406 0.765625 -0.265625 C 0.765625 -0.335938 0.78125 -0.410156 0.8125 -0.484375 C 1.175781 -1.347656 1.707031 -2.835938 2.40625 -4.953125 C 2.007812 -6.128906 1.476562 -7.460938 0.8125 -8.953125 C 0.769531 -9.046875 0.75 -9.132812 0.75 -9.21875 Z M 0.75 -9.21875 "/></g></g></g><g fill="#ffffff" fill-opacity="1"><g transform="translate(61.865349, 22.661342)"><g><path d="M 1.6875 -8.125 C 1.6875 -7.96875 1.679688 -7.78125 1.671875 -7.5625 C 1.671875 -7.351562 1.671875 -6.507812 1.671875 -5.03125 C 1.671875 -3.5625 1.695312 -2.007812 1.75 -0.375 C 1.75 -0.257812 1.710938 -0.164062 1.640625 -0.09375 C 1.566406 -0.03125 1.488281 0 1.40625 0 C 1.320312 0 1.25 -0.0234375 1.1875 -0.078125 C 1.125 -0.140625 1.09375 -0.269531 1.09375 -0.46875 C 1.101562 -0.664062 1.113281 -0.941406 1.125 -1.296875 C 1.132812 -1.648438 1.140625 -2.03125 1.140625 -2.4375 C 1.160156 -3.226562 1.171875 -3.96875 1.171875 -4.65625 C 1.171875 -5.34375 1.171875 -5.875 1.171875 -6.25 C 1.171875 -6.632812 1.164062 -6.988281 1.15625 -7.3125 C 1.144531 -8.03125 1.125 -8.601562 1.09375 -9.03125 C 1.082031 -9.15625 1.101562 -9.242188 1.15625 -9.296875 C 1.207031 -9.359375 1.273438 -9.390625 1.359375 -9.390625 C 1.453125 -9.390625 1.535156 -9.359375 1.609375 -9.296875 C 1.691406 -9.242188 1.726562 -9.144531 1.71875 -9 C 1.71875 -8.851562 1.710938 -8.710938 1.703125 -8.578125 C 1.703125 -8.441406 1.695312 -8.289062 1.6875 -8.125 Z M 1.6875 -8.125 "/></g></g></g><g fill="#ffffff" fill-opacity="1"><g transform="translate(66.15677, 22.661342)"><g><path d="M 0.78125 -2.640625 C 0.914062 -2.640625 1 -2.585938 1.03125 -2.484375 C 1.070312 -2.390625 1.09375 -2.222656 1.09375 -1.984375 C 1.09375 -1.742188 1.125 -1.519531 1.1875 -1.3125 C 1.25 -1.101562 1.335938 -0.925781 1.453125 -0.78125 C 1.691406 -0.5 2.019531 -0.359375 2.4375 -0.359375 C 2.851562 -0.359375 3.179688 -0.507812 3.421875 -0.8125 C 3.671875 -1.125 3.796875 -1.566406 3.796875 -2.140625 C 3.796875 -2.898438 3.472656 -3.578125 2.828125 -4.171875 C 2.640625 -4.347656 2.445312 -4.515625 2.25 -4.671875 C 2.0625 -4.835938 1.875 -5.007812 1.6875 -5.1875 C 1.5 -5.363281 1.332031 -5.5625 1.1875 -5.78125 C 0.863281 -6.25 0.703125 -6.785156 0.703125 -7.390625 C 0.703125 -8.015625 0.882812 -8.515625 1.25 -8.890625 C 1.613281 -9.265625 2.070312 -9.453125 2.625 -9.453125 C 3.09375 -9.453125 3.472656 -9.296875 3.765625 -8.984375 C 4.109375 -8.617188 4.265625 -8.117188 4.234375 -7.484375 C 4.234375 -7.453125 4.234375 -7.421875 4.234375 -7.390625 C 4.234375 -7.359375 4.226562 -7.289062 4.21875 -7.1875 C 4.207031 -7.09375 4.164062 -7.007812 4.09375 -6.9375 C 4.019531 -6.863281 3.941406 -6.828125 3.859375 -6.828125 C 3.785156 -6.828125 3.71875 -6.863281 3.65625 -6.9375 C 3.59375 -7.007812 3.570312 -7.109375 3.59375 -7.234375 C 3.644531 -7.515625 3.671875 -7.726562 3.671875 -7.875 C 3.671875 -8.019531 3.644531 -8.15625 3.59375 -8.28125 C 3.539062 -8.414062 3.46875 -8.53125 3.375 -8.625 C 3.164062 -8.84375 2.894531 -8.953125 2.5625 -8.953125 C 2.195312 -8.953125 1.898438 -8.828125 1.671875 -8.578125 C 1.421875 -8.296875 1.296875 -7.953125 1.296875 -7.546875 C 1.296875 -7.140625 1.335938 -6.8125 1.421875 -6.5625 C 1.515625 -6.320312 1.628906 -6.097656 1.765625 -5.890625 C 1.910156 -5.691406 2.078125 -5.507812 2.265625 -5.34375 C 2.453125 -5.1875 2.640625 -5.023438 2.828125 -4.859375 C 3.015625 -4.703125 3.203125 -4.535156 3.390625 -4.359375 C 3.578125 -4.191406 3.742188 -4.003906 3.890625 -3.796875 C 4.203125 -3.328125 4.359375 -2.785156 4.359375 -2.171875 C 4.359375 -1.460938 4.175781 -0.894531 3.8125 -0.46875 C 3.445312 -0.0390625 2.957031 0.171875 2.34375 0.171875 C 1.78125 0.171875 1.316406 -0.046875 0.953125 -0.484375 C 0.617188 -0.898438 0.453125 -1.363281 0.453125 -1.875 C 0.453125 -2.382812 0.5625 -2.640625 0.78125 -2.640625 Z M 0.78125 -2.640625 "/></g></g></g><g fill="#ffffff" fill-opacity="1"><g transform="translate(3.205012, 29.034794)"><g><path d="M 0.171875 -1.109375 L 1.015625 -1.109375 L 1.015625 -0.875 L 0.171875 -0.875 Z M 0.171875 -1.109375 "/></g></g></g><g fill="#ffffff" fill-opacity="1"><g transform="translate(7.0837, 29.034794)"><g><path d="M 1.203125 -2.21875 C 1.335938 -2.21875 1.46875 -2.191406 1.59375 -2.140625 C 1.71875 -2.097656 1.828125 -2.023438 1.921875 -1.921875 C 2.128906 -1.710938 2.234375 -1.441406 2.234375 -1.109375 C 2.234375 -0.773438 2.128906 -0.503906 1.921875 -0.296875 C 1.828125 -0.203125 1.71875 -0.128906 1.59375 -0.078125 C 1.46875 -0.0234375 1.335938 0 1.203125 0 L 0.265625 0 L 0.265625 -2.21875 Z M 1.203125 -0.234375 C 1.429688 -0.234375 1.617188 -0.320312 1.765625 -0.5 C 1.910156 -0.664062 1.984375 -0.867188 1.984375 -1.109375 C 1.984375 -1.359375 1.910156 -1.566406 1.765625 -1.734375 C 1.617188 -1.898438 1.429688 -1.984375 1.203125 -1.984375 L 0.53125 -1.984375 L 0.53125 -0.234375 Z M 1.203125 -0.234375 "/></g></g></g><g fill="#ffffff" fill-opacity="1"><g transform="translate(12.130024, 29.034794)"><g><path d="M 0.53125 -1.984375 L 0.53125 -1.234375 L 1.765625 -1.234375 L 1.765625 -0.984375 L 0.53125 -0.984375 L 0.53125 -0.234375 L 1.90625 -0.234375 L 1.90625 0 L 0.265625 0 L 0.265625 -2.21875 L 1.90625 -2.21875 L 1.90625 -1.984375 Z M 0.53125 -1.984375 "/></g></g></g><g fill="#ffffff" fill-opacity="1"><g transform="translate(16.854242, 29.034794)"><g><path d="M 0.53125 -1.875 C 0.488281 -1.84375 0.457031 -1.800781 0.4375 -1.75 C 0.425781 -1.707031 0.421875 -1.660156 0.421875 -1.609375 C 0.421875 -1.566406 0.441406 -1.523438 0.484375 -1.484375 C 0.523438 -1.441406 0.582031 -1.40625 0.65625 -1.375 C 0.726562 -1.34375 0.8125 -1.316406 0.90625 -1.296875 C 1 -1.273438 1.09375 -1.25 1.1875 -1.21875 C 1.28125 -1.195312 1.375 -1.171875 1.46875 -1.140625 C 1.5625 -1.109375 1.640625 -1.070312 1.703125 -1.03125 C 1.867188 -0.925781 1.953125 -0.785156 1.953125 -0.609375 C 1.953125 -0.398438 1.875 -0.238281 1.71875 -0.125 C 1.5625 -0.0195312 1.34375 0.03125 1.0625 0.03125 C 0.75 0.03125 0.515625 -0.0351562 0.359375 -0.171875 C 0.210938 -0.285156 0.128906 -0.453125 0.109375 -0.671875 L 0.375 -0.671875 C 0.382812 -0.515625 0.457031 -0.394531 0.59375 -0.3125 C 0.707031 -0.25 0.867188 -0.21875 1.078125 -0.21875 C 1.492188 -0.21875 1.703125 -0.347656 1.703125 -0.609375 C 1.703125 -0.691406 1.660156 -0.757812 1.578125 -0.8125 C 1.503906 -0.863281 1.410156 -0.90625 1.296875 -0.9375 C 1.179688 -0.976562 1.054688 -1.007812 0.921875 -1.03125 C 0.796875 -1.0625 0.675781 -1.097656 0.5625 -1.140625 C 0.457031 -1.191406 0.363281 -1.253906 0.28125 -1.328125 C 0.207031 -1.398438 0.171875 -1.503906 0.171875 -1.640625 C 0.171875 -1.816406 0.238281 -1.960938 0.375 -2.078125 C 0.519531 -2.191406 0.734375 -2.25 1.015625 -2.25 C 1.296875 -2.25 1.515625 -2.1875 1.671875 -2.0625 C 1.804688 -1.945312 1.878906 -1.796875 1.890625 -1.609375 L 1.625 -1.609375 C 1.601562 -1.796875 1.488281 -1.921875 1.28125 -1.984375 C 1.195312 -2.003906 1.097656 -2.015625 0.984375 -2.015625 C 0.878906 -2.015625 0.785156 -2 0.703125 -1.96875 C 0.628906 -1.945312 0.570312 -1.914062 0.53125 -1.875 Z M 0.53125 -1.875 "/></g></g></g><g fill="#ffffff" fill-opacity="1"><g transform="translate(21.601946, 29.034794)"><g><path d="M 2.21875 0 L 1.9375 0 L 1.65625 -0.640625 L 0.5625 -0.640625 L 0.28125 0 L 0.015625 0 L 0.953125 -2.21875 L 1.265625 -2.21875 Z M 1.5625 -0.875 L 1.109375 -1.96875 L 0.65625 -0.875 Z M 1.5625 -0.875 "/></g></g></g><g fill="#ffffff" fill-opacity="1"><g transform="translate(26.50735, 29.034794)"><g><path d="M 0.53125 0 L 0.265625 0 L 0.265625 -2.21875 L 1.34375 -2.21875 C 1.5625 -2.21875 1.738281 -2.15625 1.875 -2.03125 C 2.019531 -1.90625 2.09375 -1.738281 2.09375 -1.53125 C 2.09375 -1.25 1.972656 -1.054688 1.734375 -0.953125 C 1.671875 -0.929688 1.609375 -0.910156 1.546875 -0.890625 L 2.140625 0 L 1.828125 0 L 1.296875 -0.859375 L 0.53125 -0.859375 Z M 0.53125 -1.09375 L 1.296875 -1.09375 C 1.535156 -1.09375 1.695312 -1.164062 1.78125 -1.3125 C 1.8125 -1.363281 1.828125 -1.4375 1.828125 -1.53125 C 1.828125 -1.664062 1.78125 -1.773438 1.6875 -1.859375 C 1.59375 -1.941406 1.46875 -1.984375 1.3125 -1.984375 L 0.53125 -1.984375 Z M 0.53125 -1.09375 "/></g></g></g><g fill="#ffffff" fill-opacity="1"><g transform="translate(31.43624, 29.034794)"><g><path d="M 0.53125 0 L 0.265625 0 L 0.265625 -2.21875 L 1.34375 -2.21875 C 1.5625 -2.21875 1.738281 -2.15625 1.875 -2.03125 C 2.019531 -1.90625 2.09375 -1.738281 2.09375 -1.53125 C 2.09375 -1.25 1.972656 -1.054688 1.734375 -0.953125 C 1.671875 -0.929688 1.609375 -0.910156 1.546875 -0.890625 L 2.140625 0 L 1.828125 0 L 1.296875 -0.859375 L 0.53125 -0.859375 Z M 0.53125 -1.09375 L 1.296875 -1.09375 C 1.535156 -1.09375 1.695312 -1.164062 1.78125 -1.3125 C 1.8125 -1.363281 1.828125 -1.4375 1.828125 -1.53125 C 1.828125 -1.664062 1.78125 -1.773438 1.6875 -1.859375 C 1.59375 -1.941406 1.46875 -1.984375 1.3125 -1.984375 L 0.53125 -1.984375 Z M 0.53125 -1.09375 "/></g></g></g><g fill="#ffffff" fill-opacity="1"><g transform="translate(36.365131, 29.034794)"><g><path d="M 1.265625 -2.25 C 1.585938 -2.25 1.859375 -2.140625 2.078125 -1.921875 C 2.285156 -1.703125 2.390625 -1.429688 2.390625 -1.109375 C 2.390625 -0.785156 2.285156 -0.519531 2.078125 -0.3125 C 1.859375 -0.0820312 1.585938 0.03125 1.265625 0.03125 C 0.929688 0.03125 0.65625 -0.0820312 0.4375 -0.3125 C 0.226562 -0.519531 0.125 -0.785156 0.125 -1.109375 C 0.125 -1.429688 0.226562 -1.703125 0.4375 -1.921875 C 0.65625 -2.140625 0.929688 -2.25 1.265625 -2.25 Z M 1.265625 -0.21875 C 1.523438 -0.21875 1.738281 -0.304688 1.90625 -0.484375 C 2.0625 -0.640625 2.140625 -0.847656 2.140625 -1.109375 C 2.140625 -1.367188 2.0625 -1.582031 1.90625 -1.75 C 1.738281 -1.914062 1.523438 -2 1.265625 -2 C 0.992188 -2 0.78125 -1.914062 0.625 -1.75 C 0.46875 -1.582031 0.390625 -1.367188 0.390625 -1.109375 C 0.390625 -0.847656 0.46875 -0.640625 0.625 -0.484375 C 0.78125 -0.304688 0.992188 -0.21875 1.265625 -0.21875 Z M 1.265625 -0.21875 "/></g></g></g><g fill="#ffffff" fill-opacity="1"><g transform="translate(41.5658, 29.034794)"><g><path d="M 0.53125 -2.21875 L 0.53125 -0.234375 L 1.734375 -0.234375 L 1.734375 0 L 0.265625 0 L 0.265625 -2.21875 Z M 0.53125 -2.21875 "/></g></g></g><g fill="#ffffff" fill-opacity="1"><g transform="translate(46.038372, 29.034794)"><g><path d="M 0.53125 -2.21875 L 0.53125 -0.234375 L 1.734375 -0.234375 L 1.734375 0 L 0.265625 0 L 0.265625 -2.21875 Z M 0.53125 -2.21875 "/></g></g></g><g fill="#ffffff" fill-opacity="1"><g transform="translate(50.510944, 29.034794)"><g><path d="M 2.21875 0 L 1.9375 0 L 1.65625 -0.640625 L 0.5625 -0.640625 L 0.28125 0 L 0.015625 0 L 0.953125 -2.21875 L 1.265625 -2.21875 Z M 1.5625 -0.875 L 1.109375 -1.96875 L 0.65625 -0.875 Z M 1.5625 -0.875 "/></g></g></g><g fill="#ffffff" fill-opacity="1"><g transform="translate(55.41635, 29.034794)"><g><path d="M 1.203125 -2.21875 C 1.335938 -2.21875 1.46875 -2.191406 1.59375 -2.140625 C 1.71875 -2.097656 1.828125 -2.023438 1.921875 -1.921875 C 2.128906 -1.710938 2.234375 -1.441406 2.234375 -1.109375 C 2.234375 -0.773438 2.128906 -0.503906 1.921875 -0.296875 C 1.828125 -0.203125 1.71875 -0.128906 1.59375 -0.078125 C 1.46875 -0.0234375 1.335938 0 1.203125 0 L 0.265625 0 L 0.265625 -2.21875 Z M 1.203125 -0.234375 C 1.429688 -0.234375 1.617188 -0.320312 1.765625 -0.5 C 1.910156 -0.664062 1.984375 -0.867188 1.984375 -1.109375 C 1.984375 -1.359375 1.910156 -1.566406 1.765625 -1.734375 C 1.617188 -1.898438 1.429688 -1.984375 1.203125 -1.984375 L 0.53125 -1.984375 L 0.53125 -0.234375 Z M 1.203125 -0.234375 "/></g></g></g><g fill="#ffffff" fill-opacity="1"><g transform="translate(60.462676, 29.034794)"><g><path d="M 1.265625 -2.25 C 1.585938 -2.25 1.859375 -2.140625 2.078125 -1.921875 C 2.285156 -1.703125 2.390625 -1.429688 2.390625 -1.109375 C 2.390625 -0.785156 2.285156 -0.519531 2.078125 -0.3125 C 1.859375 -0.0820312 1.585938 0.03125 1.265625 0.03125 C 0.929688 0.03125 0.65625 -0.0820312 0.4375 -0.3125 C 0.226562 -0.519531 0.125 -0.785156 0.125 -1.109375 C 0.125 -1.429688 0.226562 -1.703125 0.4375 -1.921875 C 0.65625 -2.140625 0.929688 -2.25 1.265625 -2.25 Z M 1.265625 -0.21875 C 1.523438 -0.21875 1.738281 -0.304688 1.90625 -0.484375 C 2.0625 -0.640625 2.140625 -0.847656 2.140625 -1.109375 C 2.140625 -1.367188 2.0625 -1.582031 1.90625 -1.75 C 1.738281 -1.914062 1.523438 -2 1.265625 -2 C 0.992188 -2 0.78125 -1.914062 0.625 -1.75 C 0.46875 -1.582031 0.390625 -1.367188 0.390625 -1.109375 C 0.390625 -0.847656 0.46875 -0.640625 0.625 -0.484375 C 0.78125 -0.304688 0.992188 -0.21875 1.265625 -0.21875 Z M 1.265625 -0.21875 "/></g></g></g><g fill="#ffffff" fill-opacity="1"><g transform="translate(65.663345, 29.034794)"><g><path d="M 0.53125 0 L 0.265625 0 L 0.265625 -2.21875 L 1.34375 -2.21875 C 1.5625 -2.21875 1.738281 -2.15625 1.875 -2.03125 C 2.019531 -1.90625 2.09375 -1.738281 2.09375 -1.53125 C 2.09375 -1.25 1.972656 -1.054688 1.734375 -0.953125 C 1.671875 -0.929688 1.609375 -0.910156 1.546875 -0.890625 L 2.140625 0 L 1.828125 0 L 1.296875 -0.859375 L 0.53125 -0.859375 Z M 0.53125 -1.09375 L 1.296875 -1.09375 C 1.535156 -1.09375 1.695312 -1.164062 1.78125 -1.3125 C 1.8125 -1.363281 1.828125 -1.4375 1.828125 -1.53125 C 1.828125 -1.664062 1.78125 -1.773438 1.6875 -1.859375 C 1.59375 -1.941406 1.46875 -1.984375 1.3125 -1.984375 L 0.53125 -1.984375 Z M 0.53125 -1.09375 "/></g></g></g><g fill="#ffffff" fill-opacity="1"><g transform="translate(70.592238, 29.034794)"><g><path d="M 0.171875 -1.109375 L 1.015625 -1.109375 L 1.015625 -0.875 L 0.171875 -0.875 Z M 0.171875 -1.109375 "/></g></g></g></svg>